<svg width="232" height="48" viewBox="0 0 232 48" fill="none" xmlns="http://www.w3.org/2000/svg">
<path d="M48 24C48 37.2548 37.2548 48 24 48C10.7452 48 0 37.2548 0 24C0 10.7452 10.7452 0 24 0C37.2548 0 48 10.7452 48 24Z" fill="#605169"/>
<path d="M24 48C37.2548 48 48 37.2548 48 24C48 23.2773 47.9681 22.5621 47.9055 21.8557C46.9767 30.9249 39.3146 38 30 38C20.0589 38 12 29.9411 12 20C12 10.0589 20.0589 2 30 2C31.7989 2 33.5362 2.26389 35.1752 2.75507C31.8376 0.995804 28.0351 0 24 0C10.7452 0 0 10.7452 0 24C0 37.2548 10.7452 48 24 48Z" fill="#CA7573"/>
<path d="M67.9 9.28V39H62.96V9.28H67.9ZM78.0194 18.48V31.52C78.0194 32.7733 78.306 33.7467 78.8794 34.44C79.466 35.12 80.3394 35.46 81.4994 35.46C82.3527 35.46 83.1527 35.2733 83.8994 34.9C84.646 34.5133 85.3527 33.9867 86.0194 33.32V18.48H90.9594V39H87.9394C87.2994 39 86.8794 38.7 86.6794 38.1L86.3394 36.46C85.9127 36.8867 85.4727 37.28 85.0194 37.64C84.566 37.9867 84.0794 38.2867 83.5594 38.54C83.0527 38.78 82.4994 38.9667 81.8994 39.1C81.3127 39.2467 80.6794 39.32 79.9994 39.32C78.8794 39.32 77.886 39.1333 77.0194 38.76C76.166 38.3733 75.446 37.8333 74.8594 37.14C74.2727 36.4467 73.826 35.6267 73.5194 34.68C73.226 33.72 73.0794 32.6667 73.0794 31.52V18.48H78.0194ZM96.2337 39V18.48H99.2538C99.8938 18.48 100.314 18.78 100.514 19.38L100.854 21C101.267 20.5733 101.7 20.1867 102.154 19.84C102.62 19.4933 103.107 19.1933 103.614 18.94C104.134 18.6867 104.687 18.4933 105.274 18.36C105.86 18.2267 106.5 18.16 107.194 18.16C108.314 18.16 109.307 18.3533 110.174 18.74C111.04 19.1133 111.76 19.6467 112.334 20.34C112.92 21.02 113.36 21.84 113.654 22.8C113.96 23.7467 114.114 24.7933 114.114 25.94V39H109.174V25.94C109.174 24.6867 108.88 23.72 108.294 23.04C107.72 22.3467 106.854 22 105.694 22C104.84 22 104.04 22.1933 103.294 22.58C102.547 22.9667 101.84 23.4933 101.174 24.16V39H96.2337ZM135.048 39H132.828C132.361 39 131.995 38.9333 131.728 38.8C131.461 38.6533 131.261 38.3667 131.128 37.94L130.688 36.48C130.168 36.9467 129.655 37.36 129.148 37.72C128.655 38.0667 128.141 38.36 127.608 38.6C127.075 38.84 126.508 39.02 125.908 39.14C125.308 39.26 124.641 39.32 123.908 39.32C123.041 39.32 122.241 39.2067 121.508 38.98C120.775 38.74 120.141 38.3867 119.608 37.92C119.088 37.4533 118.681 36.8733 118.388 36.18C118.095 35.4867 117.948 34.68 117.948 33.76C117.948 32.9867 118.148 32.2267 118.548 31.48C118.961 30.72 119.641 30.04 120.588 29.44C121.535 28.8267 122.795 28.32 124.368 27.92C125.941 27.52 127.895 27.2933 130.228 27.24V26.04C130.228 24.6667 129.935 23.6533 129.348 23C128.775 22.3333 127.935 22 126.828 22C126.028 22 125.361 22.0933 124.828 22.28C124.295 22.4667 123.828 22.68 123.428 22.92C123.041 23.1467 122.681 23.3533 122.348 23.54C122.015 23.7267 121.648 23.82 121.248 23.82C120.915 23.82 120.628 23.7333 120.388 23.56C120.148 23.3867 119.955 23.1733 119.808 22.92L118.908 21.34C121.268 19.18 124.115 18.1 127.448 18.1C128.648 18.1 129.715 18.3 130.648 18.7C131.595 19.0867 132.395 19.6333 133.048 20.34C133.701 21.0333 134.195 21.8667 134.528 22.84C134.875 23.8133 135.048 24.88 135.048 26.04V39ZM125.448 35.92C125.955 35.92 126.421 35.8733 126.848 35.78C127.275 35.6867 127.675 35.5467 128.048 35.36C128.435 35.1733 128.801 34.9467 129.148 34.68C129.508 34.4 129.868 34.0733 130.228 33.7V30.24C128.788 30.3067 127.581 30.4333 126.608 30.62C125.648 30.7933 124.875 31.02 124.288 31.3C123.701 31.58 123.281 31.9067 123.028 32.28C122.788 32.6533 122.668 33.06 122.668 33.5C122.668 34.3667 122.921 34.9867 123.428 35.36C123.948 35.7333 124.621 35.92 125.448 35.92Z" fill="#CA7573"/>
<path d="M147.64 39V18.48H150.54C151.047 18.48 151.4 18.5733 151.6 18.76C151.8 18.9467 151.933 19.2667 152 19.72L152.3 22.2C153.033 20.9333 153.893 19.9333 154.88 19.2C155.867 18.4667 156.973 18.1 158.2 18.1C159.213 18.1 160.053 18.3333 160.72 18.8L160.08 22.5C160.04 22.74 159.953 22.9133 159.82 23.02C159.687 23.1133 159.507 23.16 159.28 23.16C159.08 23.16 158.807 23.1133 158.46 23.02C158.113 22.9267 157.653 22.88 157.08 22.88C156.053 22.88 155.173 23.1667 154.44 23.74C153.707 24.3 153.087 25.1267 152.58 26.22V39H147.64ZM172.728 18.16C174.261 18.16 175.648 18.4067 176.888 18.9C178.141 19.3933 179.208 20.0933 180.088 21C180.968 21.9067 181.648 23.0133 182.128 24.32C182.608 25.6267 182.848 27.0867 182.848 28.7C182.848 30.3267 182.608 31.7933 182.128 33.1C181.648 34.4067 180.968 35.52 180.088 36.44C179.208 37.36 178.141 38.0667 176.888 38.56C175.648 39.0533 174.261 39.3 172.728 39.3C171.195 39.3 169.801 39.0533 168.548 38.56C167.295 38.0667 166.221 37.36 165.328 36.44C164.448 35.52 163.761 34.4067 163.268 33.1C162.788 31.7933 162.548 30.3267 162.548 28.7C162.548 27.0867 162.788 25.6267 163.268 24.32C163.761 23.0133 164.448 21.9067 165.328 21C166.221 20.0933 167.295 19.3933 168.548 18.9C169.801 18.4067 171.195 18.16 172.728 18.16ZM172.728 35.5C174.435 35.5 175.695 34.9267 176.508 33.78C177.335 32.6333 177.748 30.9533 177.748 28.74C177.748 26.5267 177.335 24.84 176.508 23.68C175.695 22.52 174.435 21.94 172.728 21.94C170.995 21.94 169.715 22.5267 168.888 23.7C168.061 24.86 167.648 26.54 167.648 28.74C167.648 30.94 168.061 32.62 168.888 33.78C169.715 34.9267 170.995 35.5 172.728 35.5ZM198.883 22.48C198.749 22.6933 198.609 22.8467 198.463 22.94C198.316 23.02 198.129 23.06 197.903 23.06C197.663 23.06 197.403 22.9933 197.123 22.86C196.856 22.7267 196.543 22.58 196.183 22.42C195.823 22.2467 195.409 22.0933 194.943 21.96C194.489 21.8267 193.949 21.76 193.323 21.76C192.349 21.76 191.583 21.9667 191.023 22.38C190.463 22.7933 190.183 23.3333 190.183 24C190.183 24.44 190.323 24.8133 190.603 25.12C190.896 25.4133 191.276 25.6733 191.743 25.9C192.223 26.1267 192.763 26.3333 193.363 26.52C193.963 26.6933 194.576 26.8867 195.203 27.1C195.829 27.3133 196.443 27.56 197.043 27.84C197.643 28.1067 198.176 28.4533 198.643 28.88C199.123 29.2933 199.503 29.7933 199.783 30.38C200.076 30.9667 200.223 31.6733 200.223 32.5C200.223 33.4867 200.043 34.4 199.683 35.24C199.323 36.0667 198.796 36.7867 198.103 37.4C197.409 38 196.549 38.4733 195.523 38.82C194.509 39.1533 193.343 39.32 192.023 39.32C191.316 39.32 190.623 39.2533 189.942 39.12C189.276 39 188.629 38.8267 188.003 38.6C187.389 38.3733 186.816 38.1067 186.283 37.8C185.763 37.4933 185.303 37.16 184.903 36.8L186.043 34.92C186.189 34.6933 186.363 34.52 186.562 34.4C186.763 34.28 187.016 34.22 187.323 34.22C187.629 34.22 187.916 34.3067 188.183 34.48C188.463 34.6533 188.783 34.84 189.143 35.04C189.503 35.24 189.923 35.4267 190.403 35.6C190.896 35.7733 191.516 35.86 192.263 35.86C192.849 35.86 193.349 35.7933 193.763 35.66C194.189 35.5133 194.536 35.3267 194.803 35.1C195.083 34.8733 195.283 34.6133 195.403 34.32C195.536 34.0133 195.603 33.7 195.603 33.38C195.603 32.9 195.456 32.5067 195.163 32.2C194.883 31.8933 194.503 31.6267 194.023 31.4C193.556 31.1733 193.016 30.9733 192.403 30.8C191.803 30.6133 191.183 30.4133 190.543 30.2C189.916 29.9867 189.296 29.74 188.683 29.46C188.083 29.1667 187.543 28.8 187.063 28.36C186.596 27.92 186.216 27.38 185.923 26.74C185.643 26.1 185.503 25.3267 185.503 24.42C185.503 23.58 185.669 22.78 186.003 22.02C186.336 21.26 186.823 20.6 187.463 20.04C188.116 19.4667 188.923 19.0133 189.883 18.68C190.856 18.3333 191.976 18.16 193.243 18.16C194.656 18.16 195.943 18.3933 197.103 18.86C198.263 19.3267 199.229 19.94 200.003 20.7L198.883 22.48ZM220.243 39H218.023C217.557 39 217.19 38.9333 216.923 38.8C216.657 38.6533 216.457 38.3667 216.323 37.94L215.883 36.48C215.363 36.9467 214.85 37.36 214.343 37.72C213.85 38.0667 213.337 38.36 212.803 38.6C212.27 38.84 211.703 39.02 211.103 39.14C210.503 39.26 209.837 39.32 209.103 39.32C208.237 39.32 207.437 39.2067 206.703 38.98C205.97 38.74 205.337 38.3867 204.803 37.92C204.283 37.4533 203.877 36.8733 203.583 36.18C203.29 35.4867 203.143 34.68 203.143 33.76C203.143 32.9867 203.343 32.2267 203.743 31.48C204.157 30.72 204.837 30.04 205.783 29.44C206.73 28.8267 207.99 28.32 209.563 27.92C211.137 27.52 213.09 27.2933 215.423 27.24V26.04C215.423 24.6667 215.13 23.6533 214.543 23C213.97 22.3333 213.13 22 212.023 22C211.223 22 210.557 22.0933 210.023 22.28C209.49 22.4667 209.023 22.68 208.623 22.92C208.237 23.1467 207.877 23.3533 207.543 23.54C207.21 23.7267 206.843 23.82 206.443 23.82C206.11 23.82 205.823 23.7333 205.583 23.56C205.343 23.3867 205.15 23.1733 205.003 22.92L204.103 21.34C206.463 19.18 209.31 18.1 212.643 18.1C213.843 18.1 214.91 18.3 215.843 18.7C216.79 19.0867 217.59 19.6333 218.243 20.34C218.897 21.0333 219.39 21.8667 219.723 22.84C220.07 23.8133 220.243 24.88 220.243 26.04V39ZM210.643 35.92C211.15 35.92 211.617 35.8733 212.043 35.78C212.47 35.6867 212.87 35.5467 213.243 35.36C213.63 35.1733 213.997 34.9467 214.343 34.68C214.703 34.4 215.063 34.0733 215.423 33.7V30.24C213.983 30.3067 212.777 30.4333 211.803 30.62C210.843 30.7933 210.07 31.02 209.483 31.3C208.897 31.58 208.477 31.9067 208.223 32.28C207.983 32.6533 207.863 33.06 207.863 33.5C207.863 34.3667 208.117 34.9867 208.623 35.36C209.143 35.7333 209.817 35.92 210.643 35.92Z" fill="#605169"/>
<path d="M224.46 36.28C224.46 35.8667 224.533 35.4733 224.68 35.1C224.84 34.7267 225.053 34.4067 225.32 34.14C225.6 33.8733 225.927 33.66 226.3 33.5C226.673 33.34 227.073 33.26 227.5 33.26C227.913 33.26 228.307 33.34 228.68 33.5C229.053 33.66 229.373 33.8733 229.64 34.14C229.907 34.4067 230.12 34.7267 230.28 35.1C230.44 35.4733 230.52 35.8667 230.52 36.28C230.52 36.7067 230.44 37.1067 230.28 37.48C230.12 37.84 229.907 38.1533 229.64 38.42C229.373 38.6867 229.053 38.8933 228.68 39.04C228.307 39.2 227.913 39.28 227.5 39.28C227.073 39.28 226.673 39.2 226.3 39.04C225.927 38.8933 225.6 38.6867 225.32 38.42C225.053 38.1533 224.84 37.84 224.68 37.48C224.533 37.1067 224.46 36.7067 224.46 36.28Z" fill="#CA7573"/>
</svg>
