<svg width="48" height="48" viewBox="0 0 48 48" fill="none" xmlns="http://www.w3.org/2000/svg">
<path d="M48 24C48 37.2548 37.2548 48 24 48C10.7452 48 0 37.2548 0 24C0 10.7452 10.7452 0 24 0C37.2548 0 48 10.7452 48 24Z" fill="#605169"/>
<path d="M24 48C37.2548 48 48 37.2548 48 24C48 23.2773 47.9681 22.5621 47.9055 21.8557C46.9767 30.9249 39.3146 38 30 38C20.0589 38 12 29.9411 12 20C12 10.0589 20.0589 2 30 2C31.7989 2 33.5362 2.26389 35.1752 2.75507C31.8376 0.995804 28.0351 0 24 0C10.7452 0 0 10.7452 0 24C0 37.2548 10.7452 48 24 48Z" fill="#CA7573"/>
</svg>
